Coordinates
version=1
nRows=21
nColumns=33
inDegrees=yes

Units are S.I. units (second, meters, Newtons, ...)
Angles are in degrees.

endheader
time	ground_thorax_rot_x	ground_thorax_rot_y	ground_thorax_rot_z	ground_thorax_tx	ground_thorax_ty	ground_thorax_tz	clav_prot_r	clav_elev_r	scapula_abduction_r	scapula_elevation_r	scapula_upward_rot_r	scapula_winging_r	shoulder_elv_r	plane_of_elev_r	axial_rot_r	elbow_flexion_r	pro_sup_r	wrist_flex_r	wrist_dev_r	clav_prot_l	clav_elev_l	scapula_abduction_l	scapula_elevation_l	scapula_upward_rot_l	scapula_winging_l	shoulder_elv_l	plane_of_elev_l	axial_rot_l	elbow_flexion_l	pro_sup_l	wrist_flex_l	wrist_dev_l
      1.51000000	      6.00435145	     -7.53843368	     13.16179607	     -0.12102630	      1.05110032	      0.00588105	      7.75789385	     -5.77872401	     21.64857987	     -4.78931722	     14.72390204	     -7.37939751	     51.19169467	     29.35551285	    -17.28284901	    108.99859137	     51.77333512	     12.06205213	     -2.97592168	      9.26951449	     -8.15177392	    -16.89448038	      1.81897487	     -1.50013726	      3.58991304	     51.07738265	     45.31725821	     10.56796981	    102.53045084	     24.98143623	     -8.93711096	     -8.98957382
      1.52000000	      6.05251144	     -7.36299483	     13.32839003	     -0.12155751	      1.05106379	      0.00566350	      7.83417864	     -6.14653199	     21.51226620	     -4.95308565	     14.26910783	     -7.17249709	     51.45595490	     28.50169470	    -17.17996668	    110.82325671	     51.94622804	     13.06834170	     -3.65217209	      9.30922726	     -8.18164538	    -16.89124649	      1.77867396	     -1.65965733	      3.56777309	     51.01491634	     45.42709210	     10.12955917	    103.43636862	     25.56907961	     -9.02439944	     -9.21472721
      1.53000000	      6.02788421	     -7.34726285	     13.25998906	     -0.12212655	      1.05109080	      0.00542077	      8.01020333	     -6.99098703	     21.72005845	     -5.60390792	     14.02780080	     -6.90026607	     51.84065140	     27.36969859	    -17.15774293	    112.31340773	     52.38746031	     15.95107648	     -5.03683897	      9.35321533	     -7.98678067	    -16.96907919	      1.61645893	     -1.62674153	      3.67494643	     50.70638934	     45.66446252	      9.72439589	    104.48966177	     26.72173517	     -9.21094599	     -9.43487584
      1.54000000	      5.98093394	     -7.30310842	     13.30772600	     -0.12264036	      1.05100665	      0.00527773	      8.16865988	     -7.35890352	     21.91067885	     -5.86705653	     13.86563993	     -6.81442537	     51.54473039	     26.14415232	    -17.13394720	    113.75454681	     52.14912229	     20.07518899	     -6.73081436	      9.36656611	     -7.83790094	    -17.04649129	      1.54109828	     -1.48691978	      3.76499039	     50.39020684	     45.61102225	      9.19144566	    105.53833467	     27.30527852	     -9.17430187	     -9.47086906
      1.55000000	      6.00919453	     -7.23039402	     13.40827885	     -0.12315999	      1.05101606	      0.00518516	      8.38044145	     -7.81234167	     22.22647992	     -6.22238328	     13.75434760	     -6.73760736	     51.30054648	     24.66576150	    -17.14238615	    115.00666723	     51.95401398	     26.00820577	     -8.77007755	      9.38693488	     -7.81644957	    -17.06049328	      1.50352504	     -1.52985934	      3.77603497	     50.10674150	     45.57849350	      8.66979851	    106.54931820	     27.56229554	     -9.07722331	     -9.58599638
      1.56000000	      6.10155140	     -7.20984173	     13.56164947	     -0.12376015	      1.05091958	      0.00512334	      8.65969512	     -8.21075816	     22.77119456	     -6.59250661	     13.83297391	     -6.76733953	     50.87867685	     23.01931264	    -17.24143668	    115.75848103	     51.53103232	     35.59620300	    -11.75437024	      9.42386056	     -7.77569155	    -17.04903891	      1.40044942	     -1.68643773	      3.77939726	     49.83344509	     45.56068091	      8.23650048	    107.58391519	     27.68822256	     -8.98048084	     -9.72148900
      1.57000000	      6.25439377	     -7.15883381	     13.68303736	     -0.12432168	      1.05080692	      0.00508734	      8.90760005	     -8.54556051	     23.36988144	     -6.96798775	     14.09028420	     -6.84388258	     50.40759049	     21.43330708	    -17.39051331	    116.09272391	     50.82352967	     48.58380124	    -15.18476969	      9.44378019	     -7.83400065	    -16.98626282	      1.35995051	     -1.90679143	      3.72183771	     49.61173394	     45.57226433	      7.83994621	    108.57616837	     27.72013408	     -8.82578358	     -9.85170520
      1.58000000	      6.39596742	     -7.10637034	     13.82987633	     -0.12481863	      1.05064781	      0.00509739	      9.06057181	     -8.76559226	     23.82007907	     -7.25322618	     14.37594499	     -6.91260102	     49.71383648	     20.14875181	    -17.56679386	    116.26720394	     49.71114323	     63.60195912	    -17.34827955	      9.45750493	     -7.92562933	    -16.90447065	      1.33794231	     -2.15343210	      3.64359779	     49.44851813	     45.53198369	      7.45275768	    109.55636262	     27.72270465	     -8.61336474	     -9.99539285
      1.59000000	      6.82262136	     -6.80288071	     13.82964607	     -0.12476936	      1.05019007	      0.00513913	      9.08238707	     -8.77484995	     24.03692615	     -7.35501031	     14.65742641	     -6.98818036	     49.51159287	     18.81244466	    -17.44513149	    117.46015385	     47.63061691	     70.00000021	    -14.90586431	      9.50157393	     -8.20966637	    -16.84058345	      1.44438692	     -2.50158618	      3.50211760	     49.07629192	     45.82818931	      7.06617898	    110.47146490	     27.73899223	     -8.29687459	    -10.12084866
      1.60000000	      6.86831291	     -6.44121082	     13.74745752	     -0.12465531	      1.05022355	      0.00504194	      9.33153551	     -9.17262291	     24.03537107	     -7.47006586	     13.97539487	     -6.81079492	     49.94317384	     17.54100821	    -17.72002070	    119.56214711	     47.82054474	     70.00000021	    -14.82090455	      9.57298954	     -8.62190131	    -16.86521010	      1.70109622	     -2.77747237	      3.35137716	     49.07381341	     45.95003467	      6.47733118	    111.19179567	     27.75816566	     -8.18206277	    -10.27219902
      1.61000000	      6.71062301	     -6.46710202	     13.67297707	     -0.12516198	      1.05046307	      0.00498617	     10.14319573	    -10.77437575	     25.05567679	     -8.65673567	     13.37522304	     -6.44641134	     51.37082078	     15.28585136	    -18.27165998	    121.71958688	     49.71613488	     70.00000021	    -14.14228353	      9.53929604	     -8.63872482	    -16.75833275	      1.66784668	     -2.89227759	      3.29611576	     49.09273846	     45.94581117	      5.99095835	    111.99388959	     27.87235282	     -7.93063967	    -10.45815530
      1.62000000	      6.82453575	     -6.41191071	     13.68100570	     -0.12552153	      1.05033039	      0.00502096	     10.95575635	    -11.64085936	     26.31940636	     -9.35416405	     13.23838146	     -6.51610490	     52.14766690	     12.93914420	    -19.08381665	    123.95078934	     51.83832857	     70.00000021	    -13.13347122	      9.54138080	     -8.68449788	    -16.67744290	      1.62712971	     -3.08581973	      3.23305374	     48.92579644	     45.95263213	      5.65513712	    112.86995207	     28.17228578	     -7.71987495	    -10.70337795
      1.63000000	      7.47436443	     -6.81856678	     13.85633824	     -0.12651615	      1.04970015	      0.00530092	     12.42361486	    -11.15362320	     31.78774588	    -10.41691366	     18.03651946	     -8.80431625	     49.72197826	      5.70809764	    -20.52819860	    127.02089230	     74.97640047	     70.00000021	    -24.99999983	      9.24875452	     -8.87129114	    -16.28115222	      1.89008618	     -2.87208900	      3.01019033	     48.45944264	     45.28157252	      5.72327463	    113.97646365	     28.92604652	     -7.35147144	    -10.91730269
      1.64000000	      7.87769839	     -6.33358821	     13.91796594	     -0.12600294	      1.04908669	      0.00554287	     12.59295931	    -11.50979292	     31.55027124	    -10.48416757	     17.25783149	     -8.56934427	     50.72703806	      4.38453929	    -20.16598650	    128.82231599	     75.37492439	     70.00000021	    -24.99999983	      9.37562811	     -9.20676883	    -16.26073950	      1.94486596	     -3.45579440	      2.85151973	     48.19956126	     45.71467586	      5.24417783	    114.60606563	     29.00682952	     -7.32912002	    -11.03829728
      1.65000000	      7.66384800	     -6.27793328	     13.82708763	     -0.12592611	      1.04967784	      0.00603334	     14.25141237	    -14.40334365	     33.03285188	    -12.42766346	     15.52698309	     -7.69499406	     54.82623296	      0.61589926	    -20.55686316	    132.08330292	     80.36537656	     70.00000021	    -24.99999983	      9.24334425	     -9.31903204	    -15.90729034	      1.91589129	     -3.76287442	      2.65133120	     48.35481741	     45.74672822	      4.61468807	    115.33548675	     29.57829857	     -7.54950682	    -11.19786067
      1.66000000	      8.29913742	     -6.45184064	     14.10852899	     -0.12630807	      1.04813067	      0.00720652	     17.15267184	    -15.86023569	     36.78457724	    -13.21966742	     14.31661320	     -8.73047678	     60.04595782	     -4.88666766	    -18.10787962	    137.20757220	     96.32348573	     70.00000021	    -24.99999983	      9.13716542	     -9.18427541	    -15.61538616	      1.69146626	     -4.00496065	      2.57358165	     48.36286489	     45.60473099	      4.86408481	    116.21715461	     30.09415831	     -7.99300932	    -11.03333755
      1.67000000	      7.27885764	     -6.23301738	     13.61870283	     -0.12587845	      1.04935785	      0.00449376	      7.90231170	    -13.78731549	     22.35474404	    -11.89719769	     14.84911373	     -3.61609274	     48.00657840	     11.20757938	    -14.49341042	    129.06512196	     36.75580763	     29.93788985	    -20.38285245	      9.08281938	     -8.76997759	    -15.22267170	      1.02928905	     -4.66404115	      2.53031536	     47.89444578	     47.25588782	      2.75914871	    116.04591997	     30.67719221	     -8.15668854	    -10.76201573
      1.68000000	      8.02356991	     -6.42030462	     13.68982927	     -0.12691374	      1.04950021	      0.00533914	      9.15107114	    -13.31651589	     22.31838514	    -10.32845300	     11.54185615	     -4.03207408	     50.26686568	     13.65164691	    -14.88636486	    129.39296624	     37.21530391	     30.09713631	    -21.47852358	      8.98025224	     -9.58019354	    -15.44154242	      2.12896703	     -3.82810865	      2.35488482	     47.75376591	     45.44170038	      3.15298842	    116.98352969	     31.77130437	     -8.46400988	    -11.59169361
      1.69000000	      8.29978153	     -6.30233981	     13.59547517	     -0.12683318	      1.04898983	      0.00562065	      9.17605408	    -13.33237241	     22.19091926	    -10.24385639	     11.26463239	     -3.98610351	     50.28629103	     13.47987385	    -14.89939934	    130.05277309	     37.21495705	     30.16267849	    -21.56299395	      9.01192372	     -9.58088535	    -15.41653147	      2.05074936	     -4.01333021	      2.33551837	     47.71618409	     45.61763869	      3.00205214	    117.53549284	     31.71541613	     -8.45919980	    -11.64316725
      1.70000000	      8.32312590	     -6.02930454	     13.84510540	     -0.12697679	      1.04887190	      0.00541946	      9.27884299	    -13.37399375	     21.90196257	    -10.01365844	     10.50482936	     -3.87594531	     50.39170674	     12.97381447	    -15.04635511	    130.86896561	     37.22933585	     30.26006975	    -21.80668277	      9.12934012	     -9.70956503	    -15.40315732	      1.94217043	     -4.53632074	      2.26264969	     47.57644257	     45.85596434	      2.39068361	    117.72058784	     31.66219706	     -8.23493478	    -11.60668307
      1.71000000	      8.27534580	     -5.87006882	     13.91332489	     -0.12684371	      1.04877944	      0.00521669	      9.31227001	    -13.79437176	     21.41376603	    -10.06890033	      9.58656504	     -3.47550757	     50.92006749	     12.78088436	    -15.52258120	    131.39244802	     37.27150688	     30.41021430	    -22.30637571	      9.13622725	     -9.61917910	    -15.21351644	      1.65382496	     -5.01152588	      2.19904714	     47.41060120	     46.32576770	      1.75427864	    118.00927986	     31.36894399	     -7.76985645	    -11.46606787
